<svg width="40" height="40" viewBox="0 0 40 40" fill="none" xmlns="http://www.w3.org/2000/svg">
<circle cx="20" cy="20" r="20" fill="white"/>
<path fill-rule="evenodd" clip-rule="evenodd" d="M21.2929 14.2929C21.6834 13.9024 22.3166 13.9024 22.7071 14.2929L27.7071 19.2929C28.0976 19.6834 28.0976 20.3166 27.7071 20.7071L22.7071 25.7071C22.3166 26.0976 21.6834 26.0976 21.2929 25.7071C20.9024 25.3166 20.9024 24.6834 21.2929 24.2929L25.5858 20L21.2929 15.7071C20.9024 15.3166 20.9024 14.6834 21.2929 14.2929Z" fill="#3B5AF7"/>
<path fill-rule="evenodd" clip-rule="evenodd" d="M27 20C27 20.5523 26.5523 21 26 21L13 21C12.4477 21 12 20.5523 12 20C12 19.4477 12.4477 19 13 19L26 19C26.5523 19 27 19.4477 27 20Z" fill="#3B5AF7"/>
</svg>
